<svg xmlns="http://www.w3.org/2000/svg" viewBox="0 0 311.56 363.67"><defs><style>.cls-1,.cls-2,.cls-4{fill:none;stroke:#fff;stroke-miterlimit:10;}.cls-1,.cls-2{stroke-width:3.65px;}.cls-1{opacity:0.2;}.cls-2{opacity:0.32;}.cls-3{font-size:31px;font-family:HiraKakuStdN-W8-83pv-RKSJ-H, Hiragino Kaku Gothic StdN;letter-spacing:0.1em;}.cls-12,.cls-13,.cls-3,.cls-5,.cls-6{fill:#fff;}.cls-4{stroke-width:3.73px;}.cls-5{font-size:54.8px;}.cls-12,.cls-5,.cls-6{font-family:Arial-Black, Arial Black;font-weight:800;}.cls-6{font-size:19.57px;}.cls-7{font-size:13.05px;}.cls-10,.cls-11,.cls-8,.cls-9{font-size:18.64px;}.cls-9{letter-spacing:-0.03em;}.cls-10{letter-spacing:0em;}.cls-11{letter-spacing:0.06em;}.cls-12{font-size:23.64px;}</style></defs><g id="圖層_2" data-name="圖層 2"><g id="圖層_1-2" data-name="圖層 1"><ellipse class="cls-1" cx="217.01" cy="181.84" rx="54.45" ry="179.53"/><ellipse class="cls-1" cx="236.15" cy="181.84" rx="54.45" ry="179.53"/><ellipse class="cls-2" cx="255.29" cy="181.84" rx="54.45" ry="179.53"/><text class="cls-3" transform="translate(66.37 245.75)">貨運送達</text><path class="cls-4" d="M181.84,1.87a180,180,0,0,0,0,359.94C281.23,361.81,281.23,1.87,181.84,1.87Z"/><text class="cls-5" transform="translate(81 205.2)">24 </text><text class="cls-6" transform="translate(69.65 271.38)">24<tspan class="cls-7" x="26.11" y="0">hr</tspan><tspan x="40.6" y="0"> </tspan><tspan class="cls-8" x="47.13" y="0">deli</tspan><tspan class="cls-9" x="84.41" y="0">v</tspan><tspan class="cls-10" x="95.31" y="0">e</tspan><tspan class="cls-11" x="107.75" y="0">r</tspan><tspan class="cls-8" x="117.1" y="0">y</tspan></text><text class="cls-12" transform="translate(162.09 204.01)">hr</text><path class="cls-13" d="M124.68,139.45V108.54L97.62,92.87v30.9Zm9,0,27.06-15.68V92.87l-27.06,15.67Zm-9,10.37L93.11,131.66a8.86,8.86,0,0,1-3.33-3.27,8.76,8.76,0,0,1-1.19-4.51V88a8.76,8.76,0,0,1,1.19-4.51,8.86,8.86,0,0,1,3.33-3.27l31.57-18.16a8.84,8.84,0,0,1,9,0l31.58,18.16a8.91,8.91,0,0,1,3.32,3.27A8.76,8.76,0,0,1,169.8,88v35.86a8.76,8.76,0,0,1-1.19,4.51,8.91,8.91,0,0,1-3.32,3.27l-31.58,18.16a8.84,8.84,0,0,1-9,0Zm22.56-59.55,8.69-5L129.2,69.86l-8.8,5.07Zm-18,10.49L138,95.69,111.26,80.24l-8.79,5.07Z"/></g></g></svg>