<svg xmlns="http://www.w3.org/2000/svg" viewBox="0 0 280.73 363.67"><defs><style>.cls-1,.cls-2,.cls-7{fill:none;stroke:#fff;stroke-miterlimit:10;}.cls-1,.cls-2{stroke-width:3.65px;}.cls-1{opacity:0.13;}.cls-2{opacity:0.05;}.cls-3{font-size:31px;font-family:HiraKakuStdN-W8-83pv-RKSJ-H, Hiragino Kaku Gothic StdN;letter-spacing:0.1em;}.cls-3,.cls-4,.cls-8{fill:#fff;}.cls-4{font-size:22.95px;font-family:Arial-Black, Arial Black;font-weight:800;}.cls-5{letter-spacing:-0.02em;}.cls-6{letter-spacing:0.06em;}.cls-7{stroke-width:3.73px;}</style></defs><g id="圖層_2" data-name="圖層 2"><g id="圖層_1-2" data-name="圖層 1"><ellipse class="cls-1" cx="56.27" cy="181.84" rx="54.45" ry="179.53"/><ellipse class="cls-2" cx="75.41" cy="181.84" rx="54.45" ry="179.53"/><ellipse class="cls-2" cx="94.55" cy="181.84" rx="54.45" ry="179.53"/><text class="cls-3" transform="translate(78.04 220.75)">專人服務</text><text class="cls-4" transform="translate(81.08 253.81)">Dedic<tspan class="cls-5" x="71.42" y="0">a</tspan><tspan x="86.33" y="0">ted </tspan><tspan x="0" y="27.54">se</tspan><tspan class="cls-6" x="29.33" y="27.54">r</tspan><tspan x="40.85" y="27.54">vice</tspan></text><path class="cls-7" d="M98.89,1.87a180,180,0,0,1,0,359.94C-.5,361.81-.5,1.87,98.89,1.87Z"/><path class="cls-8" d="M139.36,166.34v-11h44v-39a38.24,38.24,0,0,0-38.5-38.5,38.26,38.26,0,0,0-38.5,38.5v33.55h-5.5a11,11,0,0,1-11-11v-11a11,11,0,0,1,5.5-9.49l.42-7.29a47.44,47.44,0,0,1,5.43-17.32,52.18,52.18,0,0,1,10.86-13.89,49.26,49.26,0,0,1,50.53-9.21,50.2,50.2,0,0,1,15,9.14A49.34,49.34,0,0,1,188.45,93.6a50.43,50.43,0,0,1,5.5,17.32l.41,7.15a9.09,9.09,0,0,1,4.06,3.72,10.22,10.22,0,0,1,1.44,5.22v12.65a10.23,10.23,0,0,1-1.44,5.23,9.07,9.07,0,0,1-4.06,3.71v6.74a11,11,0,0,1-11,11Zm-11-38.5a5.4,5.4,0,1,1,3.92-1.58A5.32,5.32,0,0,1,128.36,127.84Zm33,0a5.4,5.4,0,1,1,3.92-1.58A5.32,5.32,0,0,1,161.36,127.84ZM112,119.31a33,33,0,0,1,33.14-35.47,32.53,32.53,0,0,1,21.52,7.77,31.51,31.51,0,0,1,11.2,19.86,44.12,44.12,0,0,1-39.18-24.61A44.42,44.42,0,0,1,112,119.31Z"/></g></g></svg>