<svg xmlns="http://www.w3.org/2000/svg" viewBox="0 0 325.9 287.9"><defs><style>.cls-1{fill:#fff;}.cls-2{fill:#ff1212;}.cls-3{fill:#ffee15;}.cls-4{fill:#38ff15;}</style></defs><g id="圖層_2" data-name="圖層 2"><g id="圖層_1-2" data-name="圖層 1"><g id="圖層_2-2" data-name="圖層 2"><g id="圖層_1-2-2" data-name="圖層 1-2"><path class="cls-1" d="M265.12,252.91H57.85A57.91,57.91,0,0,1,0,195.07V57.85A57.91,57.91,0,0,1,57.85,0H265.12A57.91,57.91,0,0,1,323,57.85V195.07A57.91,57.91,0,0,1,265.12,252.91ZM57.85,5.94A52,52,0,0,0,5.94,57.85V195.07A52,52,0,0,0,57.85,247H265.12A52,52,0,0,0,317,195.07V57.85A52,52,0,0,0,265.12,5.94Z"/><path class="cls-1" d="M263.2,238.36H59.77a44.69,44.69,0,0,1-44.63-44.64V59.19A44.68,44.68,0,0,1,59.77,14.56H263.2a44.68,44.68,0,0,1,44.63,44.63V193.72A44.69,44.69,0,0,1,263.2,238.36ZM59.77,19.88A39.36,39.36,0,0,0,20.46,59.19V193.72A39.36,39.36,0,0,0,59.77,233H263.2a39.36,39.36,0,0,0,39.31-39.32V59.19A39.35,39.35,0,0,0,263.2,19.88Z"/><path class="cls-1" d="M257.25,208.55H66.93V47.33H257.25ZM70.83,204.66H253.35V51.22H70.83Z"/><rect class="cls-1" x="76.6" y="71.08" width="168.61" height="3.89"/><circle class="cls-2" cx="85.5" cy="61.74" r="2.37"/><circle class="cls-3" cx="93.82" cy="61.74" r="2.37"/><circle class="cls-4" cx="102.13" cy="61.74" r="2.37"/><path class="cls-1" d="M103.3,117.31v-4.07h9.34v8.31a18.71,18.71,0,0,1-4.75,2.48,15.64,15.64,0,0,1-4.9.67,11.88,11.88,0,0,1-5.62-1.21,8.12,8.12,0,0,1-3.4-3.56,11.72,11.72,0,0,1-1.19-5.39A11.15,11.15,0,0,1,94.11,109,8.55,8.55,0,0,1,98,105.4a12.78,12.78,0,0,1,5.33-.91,15.26,15.26,0,0,1,4.85.58,6.33,6.33,0,0,1,2.65,1.8,8.17,8.17,0,0,1,1.6,3.13l-5.83,1a3.17,3.17,0,0,0-1.19-1.68,3.79,3.79,0,0,0-2.2-.6,4,4,0,0,0-3.15,1.38,6.61,6.61,0,0,0-1.19,4.37A6.86,6.86,0,0,0,100,119a4.16,4.16,0,0,0,3.32,1.36,6.39,6.39,0,0,0,1.94-.3,11.17,11.17,0,0,0,2.1-1v-1.8Z"/><path class="cls-1" d="M115.49,114.63a9.24,9.24,0,0,1,8.29-10.11,9.84,9.84,0,0,1,1.8,0,10.27,10.27,0,0,1,7.53,2.62,9.87,9.87,0,0,1,2.63,7.33,12,12,0,0,1-1.18,5.63,8.13,8.13,0,0,1-3.34,3.41,10.91,10.91,0,0,1-5.44,1.19,12.4,12.4,0,0,1-5.47-1.06,8.21,8.21,0,0,1-3.51-3.32A11,11,0,0,1,115.49,114.63Zm6,0a6.6,6.6,0,0,0,1.1,4.25,4.16,4.16,0,0,0,5.88.06l.06-.06a7.19,7.19,0,0,0,1.07-4.55,6,6,0,0,0-1.12-4,3.76,3.76,0,0,0-3-1.27,3.66,3.66,0,0,0-2.88,1.4,6.52,6.52,0,0,0-1.1,4.22Z"/><path class="cls-1" d="M138.24,114.63a9.24,9.24,0,0,1,8.29-10.11,9.84,9.84,0,0,1,1.8,0,10.27,10.27,0,0,1,7.53,2.62,9.87,9.87,0,0,1,2.63,7.33,12,12,0,0,1-1.18,5.63,8.34,8.34,0,0,1-3.31,3.4,10.9,10.9,0,0,1-5.43,1.19,12.59,12.59,0,0,1-5.48-1.06,8.35,8.35,0,0,1-3.56-3.33A11.14,11.14,0,0,1,138.24,114.63Zm6,0a6.59,6.59,0,0,0,1.09,4.25,4.18,4.18,0,0,0,5.9.12l.11-.12a7.19,7.19,0,0,0,1.07-4.55,6,6,0,0,0-1.12-4,3.76,3.76,0,0,0-3-1.27,3.66,3.66,0,0,0-2.94,1.4,6.52,6.52,0,0,0-1.1,4.22Z"/><path class="cls-1" d="M161.83,104.85h9a10.77,10.77,0,0,1,4.28.71,7.12,7.12,0,0,1,2.7,2.07,8.49,8.49,0,0,1,1.54,3.13,14.71,14.71,0,0,1,.49,3.79,13.24,13.24,0,0,1-.71,4.87,8,8,0,0,1-2,2.88,6.51,6.51,0,0,1-2.72,1.56,13.81,13.81,0,0,1-3.56.53h-9Zm6,4.39v10.69h1.49a6.52,6.52,0,0,0,2.69-.42,2.91,2.91,0,0,0,1.32-1.45,9.27,9.27,0,0,0,.45-3.39,6.49,6.49,0,0,0-1-4.25,4.28,4.28,0,0,0-3.36-1.19Z"/><path class="cls-1" d="M93.58,137.62h9a10.77,10.77,0,0,1,4.28.71,7.12,7.12,0,0,1,2.7,2.07,8.67,8.67,0,0,1,1.55,3.13,15.15,15.15,0,0,1,.48,3.79,13.24,13.24,0,0,1-.71,4.87,8,8,0,0,1-2,2.88,6.4,6.4,0,0,1-2.72,1.56,13.81,13.81,0,0,1-3.56.53h-9Zm6,4.43v10.68h1.47a6.37,6.37,0,0,0,2.7-.41,2.94,2.94,0,0,0,1.26-1.52,9.35,9.35,0,0,0,.45-3.4,6.63,6.63,0,0,0-1-4.25,4.35,4.35,0,0,0-3.36-1.19Z"/><path class="cls-1" d="M114.73,137.62h16.18v4.17H120.78v3.07h9.41v4h-9.41v3.85h10.43v4.43H114.73Z"/><path class="cls-1" d="M133.4,150.69l5.76-.35a4.32,4.32,0,0,0,.76,2.13,3.2,3.2,0,0,0,2.66,1.19,2.94,2.94,0,0,0,2-.61,1.85,1.85,0,0,0,.7-1.41,1.78,1.78,0,0,0-.67-1.35,7.67,7.67,0,0,0-3.1-1.19,13.15,13.15,0,0,1-5.66-2.37,4.75,4.75,0,0,1-1.71-3.78,5.14,5.14,0,0,1,.88-2.84,5.77,5.77,0,0,1,2.62-2.11,12.4,12.4,0,0,1,4.75-.76,9.78,9.78,0,0,1,5.71,1.39,5.94,5.94,0,0,1,2.38,4.43l-5.69.33a2.68,2.68,0,0,0-2.83-2.53h-.14a2.42,2.42,0,0,0-1.58.45,1.38,1.38,0,0,0-.53,1.08,1.09,1.09,0,0,0,.44.85,5,5,0,0,0,2,.72,25.35,25.35,0,0,1,5.66,1.72,5.87,5.87,0,0,1,2.5,2.18,5.49,5.49,0,0,1,.78,2.88,6.21,6.21,0,0,1-1,3.47,6.55,6.55,0,0,1-2.91,2.37,11.7,11.7,0,0,1-4.75.82q-5,0-6.9-1.92A7.62,7.62,0,0,1,133.4,150.69Z"/><path class="cls-1" d="M154.42,137.62h6.06v19.54h-6.06Z"/><path class="cls-1" d="M174.64,150.09v-4H184v8.31a18.48,18.48,0,0,1-4.74,2.48,15.93,15.93,0,0,1-4.9.67,11.82,11.82,0,0,1-5.67-1.19,8.12,8.12,0,0,1-3.4-3.56,11.72,11.72,0,0,1-1.19-5.39,11.15,11.15,0,0,1,1.33-5.57,8.48,8.48,0,0,1,3.86-3.56,12.63,12.63,0,0,1,5.36-.94,15,15,0,0,1,4.84.58,6.2,6.2,0,0,1,2.66,1.82,8.06,8.06,0,0,1,1.61,3.13l-5.83,1a3.21,3.21,0,0,0-1.19-1.68,3.81,3.81,0,0,0-2.2-.6,4,4,0,0,0-3.16,1.38,6.66,6.66,0,0,0-1.18,4.37,6.9,6.9,0,0,0,1.18,4.54,4.19,4.19,0,0,0,3.33,1.36,6.64,6.64,0,0,0,1.93-.29,11.25,11.25,0,0,0,2.1-1v-1.85Z"/><path class="cls-1" d="M187.61,137.62h5.64l7.42,10.8v-10.8h5.69v19.54h-5.69l-7.33-10.68v10.68h-5.73Z"/><path class="cls-1" d="M210,143h5.79v5.42H210Zm0,8.72h5.79v5.44H210Z"/><path class="cls-1" d="M225.44,143.67a19.16,19.16,0,0,1,0,12.64,28.57,28.57,0,0,1-3.63,6.64h-3.33a28.12,28.12,0,0,0,3.18-12.54,26.37,26.37,0,0,0-.65-5.94,38.9,38.9,0,0,0-2.53-7.12h3.4A25.38,25.38,0,0,1,225.44,143.67Z"/><path class="cls-1" d="M229.48,163H91.14V99.44H229.48Zm-137.74-.59H228.88V100H91.74Z"/><rect class="cls-1" x="90.25" y="98.55" width="2.37" height="2.37"/><rect class="cls-1" x="159.12" y="98.55" width="2.37" height="2.37"/><rect class="cls-1" x="90.25" y="130.61" width="2.37" height="2.37"/><rect class="cls-1" x="227.99" y="130.61" width="2.37" height="2.37"/><rect class="cls-1" x="90.25" y="161.49" width="2.37" height="2.37"/><rect class="cls-1" x="227.99" y="98.55" width="2.37" height="2.37"/><rect class="cls-1" x="227.99" y="161.49" width="2.37" height="2.37"/><path class="cls-1" d="M314.08,287.9H19.6a11.83,11.83,0,0,1,0-23.66H314.08a11.83,11.83,0,0,1,0,23.66ZM19.6,268.9a7.17,7.17,0,1,0,0,14.34H314.08a7.17,7.17,0,0,0,0-14.34Z"/></g></g></g></g></svg>